General
Format                                   : AVI
Format/Info                              : Audio Video Interleave
File size                                : 869 MiB
Duration                                 : 1h 7mn
Overall bit rate mode                    : Variable
Overall bit rate                         : 1 807 Kbps
Movie name                               : Hawthorne Heights - This Is Who We Are (DVDRip - H.264, AC3)
Encoded by                               : HH_2012 (HH_Fan)
Genre                                    : Post-Hardcore
Law rating                               : Unrated
Recorded date                            : 2012
Original source form/Name                : Movie
Copyright                                : (c) 2006 Another Victory

Video
ID                                       : 0
Format                                   : AVC
Format/Info                              : Advanced Video Codec
Format profile                           : Main@L3.1
Format settings, CABAC                   : Yes
Format settings, ReFrames                : 2 frames
Codec ID                                 : H264
Duration                                 : 1h 7mn
Bit rate mode                            : Variable
Bit rate                                 : 1 603 Kbps
Maximum bit rate                         : 2 400 Kbps
Width                                    : 720 pixels
Height                                   : 540 pixels
Display aspect ratio                     : 4:3
Frame rate                               : 30.000 fps
Color space                              : YUV
Chroma subsampling                       : 4:2:0
Bit depth                                : 8 bits
Scan type                                : Progressive
Bits/(Pixel*Frame)                       : 0.137
Stream size                              : 771 MiB (89%)

Audio
ID                                       : 1
Format                                   : AC-3
Format/Info                              : Audio Coding 3
Mode extension                           : CM (complete main)
Format settings, Endianness              : Big
Codec ID                                 : 2000
Duration                                 : 1h 7mn
Bit rate mode                            : Constant
Bit rate                                 : 192 Kbps
Channel(s)                               : 2 channels
Channel positions                        : Front: L R
Sampling rate                            : 48.0 KHz
Bit depth                                : 16 bits
Compression mode                         : Lossy
Stream size                              : 92.3 MiB (11%)
Alignment                                : Aligned on interleaves
Interleave, duration                     : 32 ms (0.96 video frame)
Language                                 : English
